<?xml version="1.0"?>
<svg xmlns="http://www.w3.org/2000/svg" width="1920" height="874" viewBox="0 0 1920 874">
  <defs>
    <clipPath id="a">
      <path transform="translate(0 60)" style="fill:#f8e1e1" d="M0 0h1920v874H0z" />
    </clipPath>
    <clipPath id="b">
      <path class="b" d="M0 0h2252.461v1595.188H0z" />
    </clipPath>
    <clipPath id="c">
      <path class="b" d="M0 0h261v125.001H0z" />
    </clipPath>
    <clipPath id="d">
      <path d="M-68.313-619.573c20.535-19.324 53.559-6.73 53.559-6.73l800.507 436.859a108.105 108.105 0 0 0 92.657 3.228s696.859-413.566 745.066-428.347 72.65-1.672 98.449 7.637c257.314 104.867 405.4 160.668 405.4 160.668l-104.856 237.3-316.063-192.732c-16.819-4.952-51.961-2.273-51.961-2.273L868.166-54.381s-78.157 7.042-92.657 0L-44.416-443.049s-44.433-157.2-23.897-176.524Z" transform="translate(8298 748.161)" style="fill:#fff;clip-rule:evenodd" />
    </clipPath>
    <clipPath id="e">
      <path class="b" d="M0 0h1922v748.001H0z" />
    </clipPath>
    <style>.b,.i,.j{fill:none}.g{fill:#20256c;stroke-width:6px;fill-rule:evenodd}.g,.i{stroke:#20256c}.g,.i,.j{stroke-linecap:round;stroke-linejoin:round}.i,.j{stroke-width:50px}.j{stroke:#282f89}.n{fill:#2b2bb2}</style>
  </defs>
  <g transform="translate(0 -60)" style="clip-path:url(#a)">
    <path transform="translate(-.125)" style="fill:#151950" d="M0 0h1920v934H0z" />
    <g transform="translate(-192.125 35.406)" style="clip-path:url(#b)">
      <path class="g" d="M1956.064 385.26a144.547 144.547 0 0 0 1.14 67.121l24.73-.42a123.859 123.859 0 0 0 11.84 27.364l-17.136 17.72a149.247 149.247 0 0 0 48.27 46.667l17.136-17.738a123.818 123.818 0 0 0 27.743 10.913l.42 24.72a144.548 144.548 0 0 0 67.122-1.142l-.42-24.72a123.7 123.7 0 0 0 27.364-11.85l17.729 17.146a149.122 149.122 0 0 0 46.648-48.281l-17.72-17.126a124.318 124.318 0 0 0 10.904-27.752l24.73-.42a144.89 144.89 0 0 0-1.141-67.122l-24.73.42a124.318 124.318 0 0 0-11.84-27.364l17.126-17.72a149.122 149.122 0 0 0-48.262-46.667l-17.135 17.739a123.695 123.695 0 0 0-27.752-10.914l-.42-24.718a144.55 144.55 0 0 0-67.122 1.141l.42 24.72a123.807 123.807 0 0 0-27.355 11.849l-17.729-17.146a149.246 149.246 0 0 0-46.658 48.28l17.73 17.126a123.86 123.86 0 0 0-10.904 27.752Z" />
      <path d="m5359-250.406 35.593 20.554 395.214 228.18 435.357 251.358 18.949 10.94L6785.84 573.4a117.331 117.331 0 0 0 81.355 13.5l749.228-431.353a114.24 114.24 0 0 1 114.089.083l146.927 84.83a114.192 114.192 0 0 0 114.137.035l363.819-209.728 366.4 212.4v570.366H6473.546l190.277-109.548-38.8-22.4a117.337 117.337 0 0 0-117.315 0L5359 1344.782Z" transform="translate(-5814 250.406)" style="fill:#272f88;stroke:transparent;stroke-miterlimit:10" />
    </g>
    <path class="i" d="m184.482 304.767 46.457-46.457M184.482 305.312l46.457 46.457" />
    <path class="j" d="m296.939 304.769-46.457-46.457M296.939 305.31l-46.457 46.457" />
    <path class="g" d="M1231.176 315.232a59.354 59.354 0 0 0 .469 27.561l10.155-.172a50.857 50.857 0 0 0 4.862 11.236l-7.036 7.276a61.282 61.282 0 0 0 19.82 19.162l7.036-7.284a50.84 50.84 0 0 0 11.392 4.482l.172 10.15a59.354 59.354 0 0 0 27.561-.469l-.172-10.15a50.792 50.792 0 0 0 11.236-4.866l7.28 7.04a61.23 61.23 0 0 0 19.154-19.825l-7.276-7.032a51.045 51.045 0 0 0 4.478-11.396l10.154-.172a59.494 59.494 0 0 0-.469-27.561l-10.154.172a51.045 51.045 0 0 0-4.862-11.236l7.032-7.275a61.23 61.23 0 0 0-19.817-19.162l-7.036 7.284a50.791 50.791 0 0 0-11.396-4.482l-.172-10.15a59.354 59.354 0 0 0-27.561.469l.172 10.15a50.838 50.838 0 0 0-11.231 4.865l-7.28-7.04a61.282 61.282 0 0 0-19.159 19.824l7.28 7.032a50.857 50.857 0 0 0-4.478 11.396ZM-159.034 66.35a158.192 158.192 0 0 0 1.25 73.458l27.063-.46a135.55 135.55 0 0 0 12.959 29.947l-18.754 19.392a163.334 163.334 0 0 0 52.828 51.072l18.754-19.412a135.5 135.5 0 0 0 30.36 11.944l.46 27.054a158.193 158.193 0 0 0 73.458-1.25l-.46-27.053a135.377 135.377 0 0 0 29.948-12.969l19.402 18.764a163.196 163.196 0 0 0 51.051-52.838l-19.392-18.743a136.05 136.05 0 0 0 11.933-30.37l27.064-.46a158.567 158.567 0 0 0-1.249-73.458l-27.064.46A136.05 136.05 0 0 0 117.62 31.48l18.744-19.392a163.195 163.195 0 0 0-52.818-51.072L64.792-19.572A135.37 135.37 0 0 0 34.42-31.515l-.46-27.053a158.195 158.195 0 0 0-73.457 1.249l.46 27.053a135.494 135.494 0 0 0-29.937 12.968l-19.403-18.764a163.334 163.334 0 0 0-51.061 52.838l19.402 18.743a135.552 135.552 0 0 0-11.934 30.372Z" />
    <path class="i" d="m1104.816 458.335 58.898 36.803" />
    <g transform="rotate(-13 2396.207 -4405.36)" style="stroke:#282f89;stroke-width:50px;fill:#151950">
      <ellipse cx="21.5" cy="22" rx="21.5" ry="22" style="stroke:none" />
      <ellipse class="b" cx="21.5" cy="22" rx="46.5" ry="47" />
    </g>
    <path class="i" d="m64.806 490.388 21.56-81.114M126.428 492.074l21.56-81.114M1782.183 117.053l21.56-81.114M1634.527 451.517h0Zm-35.931-35.931h0ZM1843.805 118.739l21.56-81.114" />
    <path d="M67.15 29.858a20 20 0 0 1 34.608 0L151.5 115.7a20 20 0 0 1-17.3 30.028H34.707A20 20 0 0 1 17.4 115.7Z" transform="rotate(90 792.982 856.477)" style="fill:#282f89" />
    <g transform="translate(1683.499 29)" style="clip-path:url(#c);opacity:.668">
      <path class="n" d="M3 8V5H0V3h3V0h2v3h3v2H5v3ZM53 8V5h-3V3h3V0h2v3h3v2h-3v3ZM103 8V5h-3V3h3V0h2v3h3v2h-3v3ZM153 8V5h-3V3h3V0h2v3h3v2h-3v3ZM203 8V5h-3V3h3V0h2v3h3v2h-3v3ZM253 8V5h-3V3h3V0h2v3h3v2h-3v3ZM3 60v-3H0v-2h3v-3h2v3h3v2H5v3ZM53 60v-3h-3v-2h3v-3h2v3h3v2h-3v3ZM103 60v-3h-3v-2h3v-3h2v3h3v2h-3v3ZM153 60v-3h-3v-2h3v-3h2v3h3v2h-3v3ZM203 60v-3h-3v-2h3v-3h2v3h3v2h-3v3ZM253 60v-3h-3v-2h3v-3h2v3h3v2h-3v3ZM3 112v-3H0v-2h3v-3h2v3h3v2H5v3ZM53 112v-3h-3v-2h3v-3h2v3h3v2h-3v3ZM103 112v-3h-3v-2h3v-3h2v3h3v2h-3v3ZM153 112v-3h-3v-2h3v-3h2v3h3v2h-3v3ZM203 112v-3h-3v-2h3v-3h2v3h3v2h-3v3ZM253 112v-3h-3v-2h3v-3h2v3h3v2h-3v3Z" />
    </g>
    <g style="clip-path:url(#d)">
      <g transform="translate(18.499 322)" style="clip-path:url(#e);opacity:.668">
        <path class="n" d="M3 8V5H0V3h3V0h2v3h3v2H5v3ZM53 8V5h-3V3h3V0h2v3h3v2h-3v3ZM103 8V5h-3V3h3V0h2v3h3v2h-3v3ZM153 8V5h-3V3h3V0h2v3h3v2h-3v3ZM203 8V5h-3V3h3V0h2v3h3v2h-3v3ZM253 8V5h-3V3h3V0h2v3h3v2h-3v3ZM303 8V5h-3V3h3V0h2v3h3v2h-3v3ZM353 8V5h-3V3h3V0h2v3h3v2h-3v3ZM403 8V5h-3V3h3V0h2v3h3v2h-3v3ZM453 8V5h-3V3h3V0h2v3h3v2h-3v3ZM503 8V5h-3V3h3V0h2v3h3v2h-3v3ZM553 8V5h-3V3h3V0h2v3h3v2h-3v3ZM603 8V5h-3V3h3V0h2v3h3v2h-3v3ZM653 8V5h-3V3h3V0h2v3h3v2h-3v3ZM703 8V5h-3V3h3V0h2v3h3v2h-3v3ZM753 8V5h-3V3h3V0h2v3h3v2h-3v3ZM803 8V5h-3V3h3V0h2v3h3v2h-3v3ZM853 8V5h-3V3h3V0h2v3h3v2h-3v3ZM903 8V5h-3V3h3V0h2v3h3v2h-3v3ZM953 8V5h-3V3h3V0h2v3h3v2h-3v3ZM1003 8V5h-3V3h3V0h2v3h3v2h-3v3ZM1053 8V5h-3V3h3V0h2v3h3v2h-3v3ZM1103 8V5h-3V3h3V0h2v3h3v2h-3v3ZM1153 8V5h-3V3h3V0h2v3h3v2h-3v3ZM1203 8V5h-3V3h3V0h2v3h3v2h-3v3ZM1253 8V5h-3V3h3V0h2v3h3v2h-3v3ZM1303 8V5h-3V3h3V0h2v3h3v2h-3v3ZM1353 8V5h-3V3h3V0h2v3h3v2h-3v3ZM1403 8V5h-3V3h3V0h2v3h3v2h-3v3ZM1453 8V5h-3V3h3V0h2v3h3v2h-3v3ZM1503 8V5h-3V3h3V0h2v3h3v2h-3v3ZM1553 8V5h-3V3h3V0h2v3h3v2h-3v3ZM1603 8V5h-3V3h3V0h2v3h3v2h-3v3ZM1653 8V5h-3V3h3V0h2v3h3v2h-3v3ZM1703 8V5h-3V3h3V0h2v3h3v2h-3v3ZM1753 8V5h-3V3h3V0h2v3h3v2h-3v3ZM1803 8V5h-3V3h3V0h2v3h3v2h-3v3ZM1853 8V5h-3V3h3V0h2v3h3v2h-3v3ZM1903 8V5h-3V3h3V0h2v3h3v2h-3v3ZM3 60v-3H0v-2h3v-3h2v3h3v2H5v3ZM53 60v-3h-3v-2h3v-3h2v3h3v2h-3v3ZM103 60v-3h-3v-2h3v-3h2v3h3v2h-3v3ZM153 60v-3h-3v-2h3v-3h2v3h3v2h-3v3ZM203 60v-3h-3v-2h3v-3h2v3h3v2h-3v3ZM253 60v-3h-3v-2h3v-3h2v3h3v2h-3v3ZM303 60v-3h-3v-2h3v-3h2v3h3v2h-3v3ZM353 60v-3h-3v-2h3v-3h2v3h3v2h-3v3ZM403 60v-3h-3v-2h3v-3h2v3h3v2h-3v3ZM453 60v-3h-3v-2h3v-3h2v3h3v2h-3v3ZM503 60v-3h-3v-2h3v-3h2v3h3v2h-3v3ZM553 60v-3h-3v-2h3v-3h2v3h3v2h-3v3ZM603 60v-3h-3v-2h3v-3h2v3h3v2h-3v3ZM653 60v-3h-3v-2h3v-3h2v3h3v2h-3v3ZM703 60v-3h-3v-2h3v-3h2v3h3v2h-3v3ZM753 60v-3h-3v-2h3v-3h2v3h3v2h-3v3ZM803 60v-3h-3v-2h3v-3h2v3h3v2h-3v3ZM853 60v-3h-3v-2h3v-3h2v3h3v2h-3v3ZM903 60v-3h-3v-2h3v-3h2v3h3v2h-3v3ZM953 60v-3h-3v-2h3v-3h2v3h3v2h-3v3ZM1003 60v-3h-3v-2h3v-3h2v3h3v2h-3v3ZM1053 60v-3h-3v-2h3v-3h2v3h3v2h-3v3ZM1103 60v-3h-3v-2h3v-3h2v3h3v2h-3v3ZM1153 60v-3h-3v-2h3v-3h2v3h3v2h-3v3ZM1203 60v-3h-3v-2h3v-3h2v3h3v2h-3v3ZM1253 60v-3h-3v-2h3v-3h2v3h3v2h-3v3ZM1303 60v-3h-3v-2h3v-3h2v3h3v2h-3v3ZM1353 60v-3h-3v-2h3v-3h2v3h3v2h-3v3ZM1403 60v-3h-3v-2h3v-3h2v3h3v2h-3v3ZM1453 60v-3h-3v-2h3v-3h2v3h3v2h-3v3ZM1503 60v-3h-3v-2h3v-3h2v3h3v2h-3v3ZM1553 60v-3h-3v-2h3v-3h2v3h3v2h-3v3ZM1603 60v-3h-3v-2h3v-3h2v3h3v2h-3v3ZM1653 60v-3h-3v-2h3v-3h2v3h3v2h-3v3ZM1703 60v-3h-3v-2h3v-3h2v3h3v2h-3v3ZM1753 60v-3h-3v-2h3v-3h2v3h3v2h-3v3ZM1803 60v-3h-3v-2h3v-3h2v3h3v2h-3v3ZM1853 60v-3h-3v-2h3v-3h2v3h3v2h-3v3ZM1903 60v-3h-3v-2h3v-3h2v3h3v2h-3v3ZM3 112v-3H0v-2h3v-3h2v3h3v2H5v3ZM53 112v-3h-3v-2h3v-3h2v3h3v2h-3v3ZM103 112v-3h-3v-2h3v-3h2v3h3v2h-3v3ZM153 112v-3h-3v-2h3v-3h2v3h3v2h-3v3ZM203 112v-3h-3v-2h3v-3h2v3h3v2h-3v3ZM253 112v-3h-3v-2h3v-3h2v3h3v2h-3v3ZM303 112v-3h-3v-2h3v-3h2v3h3v2h-3v3ZM353 112v-3h-3v-2h3v-3h2v3h3v2h-3v3ZM403 112v-3h-3v-2h3v-3h2v3h3v2h-3v3ZM453 112v-3h-3v-2h3v-3h2v3h3v2h-3v3ZM503 112v-3h-3v-2h3v-3h2v3h3v2h-3v3ZM553 112v-3h-3v-2h3v-3h2v3h3v2h-3v3ZM603 112v-3h-3v-2h3v-3h2v3h3v2h-3v3ZM653 112v-3h-3v-2h3v-3h2v3h3v2h-3v3ZM703 112v-3h-3v-2h3v-3h2v3h3v2h-3v3ZM753 112v-3h-3v-2h3v-3h2v3h3v2h-3v3ZM803 112v-3h-3v-2h3v-3h2v3h3v2h-3v3ZM853 112v-3h-3v-2h3v-3h2v3h3v2h-3v3ZM903 112v-3h-3v-2h3v-3h2v3h3v2h-3v3ZM953 112v-3h-3v-2h3v-3h2v3h3v2h-3v3ZM1003 112v-3h-3v-2h3v-3h2v3h3v2h-3v3ZM1053 112v-3h-3v-2h3v-3h2v3h3v2h-3v3ZM1103 112v-3h-3v-2h3v-3h2v3h3v2h-3v3ZM1153 112v-3h-3v-2h3v-3h2v3h3v2h-3v3ZM1203 112v-3h-3v-2h3v-3h2v3h3v2h-3v3ZM1253 112v-3h-3v-2h3v-3h2v3h3v2h-3v3ZM1303 112v-3h-3v-2h3v-3h2v3h3v2h-3v3ZM1353 112v-3h-3v-2h3v-3h2v3h3v2h-3v3ZM1403 112v-3h-3v-2h3v-3h2v3h3v2h-3v3ZM1453 112v-3h-3v-2h3v-3h2v3h3v2h-3v3ZM1503 112v-3h-3v-2h3v-3h2v3h3v2h-3v3ZM1553 112v-3h-3v-2h3v-3h2v3h3v2h-3v3ZM1603 112v-3h-3v-2h3v-3h2v3h3v2h-3v3ZM1653 112v-3h-3v-2h3v-3h2v3h3v2h-3v3ZM1703 112v-3h-3v-2h3v-3h2v3h3v2h-3v3ZM1753 112v-3h-3v-2h3v-3h2v3h3v2h-3v3ZM1803 112v-3h-3v-2h3v-3h2v3h3v2h-3v3ZM1853 112v-3h-3v-2h3v-3h2v3h3v2h-3v3ZM1903 112v-3h-3v-2h3v-3h2v3h3v2h-3v3ZM3 164v-3H0v-2h3v-3h2v3h3v2H5v3ZM53 164v-3h-3v-2h3v-3h2v3h3v2h-3v3ZM103 164v-3h-3v-2h3v-3h2v3h3v2h-3v3ZM153 164v-3h-3v-2h3v-3h2v3h3v2h-3v3ZM203 164v-3h-3v-2h3v-3h2v3h3v2h-3v3ZM253 164v-3h-3v-2h3v-3h2v3h3v2h-3v3ZM303 164v-3h-3v-2h3v-3h2v3h3v2h-3v3ZM353 164v-3h-3v-2h3v-3h2v3h3v2h-3v3ZM403 164v-3h-3v-2h3v-3h2v3h3v2h-3v3ZM453 164v-3h-3v-2h3v-3h2v3h3v2h-3v3ZM503 164v-3h-3v-2h3v-3h2v3h3v2h-3v3ZM553 164v-3h-3v-2h3v-3h2v3h3v2h-3v3ZM603 164v-3h-3v-2h3v-3h2v3h3v2h-3v3ZM653 164v-3h-3v-2h3v-3h2v3h3v2h-3v3ZM703 164v-3h-3v-2h3v-3h2v3h3v2h-3v3ZM753 164v-3h-3v-2h3v-3h2v3h3v2h-3v3ZM803 164v-3h-3v-2h3v-3h2v3h3v2h-3v3ZM853 164v-3h-3v-2h3v-3h2v3h3v2h-3v3ZM903 164v-3h-3v-2h3v-3h2v3h3v2h-3v3ZM953 164v-3h-3v-2h3v-3h2v3h3v2h-3v3ZM1003 164v-3h-3v-2h3v-3h2v3h3v2h-3v3ZM1053 164v-3h-3v-2h3v-3h2v3h3v2h-3v3ZM1103 164v-3h-3v-2h3v-3h2v3h3v2h-3v3ZM1153 164v-3h-3v-2h3v-3h2v3h3v2h-3v3ZM1203 164v-3h-3v-2h3v-3h2v3h3v2h-3v3ZM1253 164v-3h-3v-2h3v-3h2v3h3v2h-3v3ZM1303 164v-3h-3v-2h3v-3h2v3h3v2h-3v3ZM1353 164v-3h-3v-2h3v-3h2v3h3v2h-3v3ZM1403 164v-3h-3v-2h3v-3h2v3h3v2h-3v3ZM1453 164v-3h-3v-2h3v-3h2v3h3v2h-3v3ZM1503 164v-3h-3v-2h3v-3h2v3h3v2h-3v3ZM1553 164v-3h-3v-2h3v-3h2v3h3v2h-3v3ZM1603 164v-3h-3v-2h3v-3h2v3h3v2h-3v3ZM1653 164v-3h-3v-2h3v-3h2v3h3v2h-3v3ZM1703 164v-3h-3v-2h3v-3h2v3h3v2h-3v3ZM1753 164v-3h-3v-2h3v-3h2v3h3v2h-3v3ZM1803 164v-3h-3v-2h3v-3h2v3h3v2h-3v3ZM1853 164v-3h-3v-2h3v-3h2v3h3v2h-3v3ZM1903 164v-3h-3v-2h3v-3h2v3h3v2h-3v3ZM3 216v-3H0v-2h3v-3h2v3h3v2H5v3ZM53 216v-3h-3v-2h3v-3h2v3h3v2h-3v3ZM103 216v-3h-3v-2h3v-3h2v3h3v2h-3v3ZM153 216v-3h-3v-2h3v-3h2v3h3v2h-3v3ZM203 216v-3h-3v-2h3v-3h2v3h3v2h-3v3ZM253 216v-3h-3v-2h3v-3h2v3h3v2h-3v3ZM303 216v-3h-3v-2h3v-3h2v3h3v2h-3v3ZM353 216v-3h-3v-2h3v-3h2v3h3v2h-3v3ZM403 216v-3h-3v-2h3v-3h2v3h3v2h-3v3ZM453 216v-3h-3v-2h3v-3h2v3h3v2h-3v3ZM503 216v-3h-3v-2h3v-3h2v3h3v2h-3v3ZM553 216v-3h-3v-2h3v-3h2v3h3v2h-3v3ZM603 216v-3h-3v-2h3v-3h2v3h3v2h-3v3ZM653 216v-3h-3v-2h3v-3h2v3h3v2h-3v3ZM703 216v-3h-3v-2h3v-3h2v3h3v2h-3v3ZM753 216v-3h-3v-2h3v-3h2v3h3v2h-3v3ZM803 216v-3h-3v-2h3v-3h2v3h3v2h-3v3ZM853 216v-3h-3v-2h3v-3h2v3h3v2h-3v3ZM903 216v-3h-3v-2h3v-3h2v3h3v2h-3v3ZM953 216v-3h-3v-2h3v-3h2v3h3v2h-3v3ZM1003 216v-3h-3v-2h3v-3h2v3h3v2h-3v3ZM1053 216v-3h-3v-2h3v-3h2v3h3v2h-3v3ZM1103 216v-3h-3v-2h3v-3h2v3h3v2h-3v3ZM1153 216v-3h-3v-2h3v-3h2v3h3v2h-3v3ZM1203 216v-3h-3v-2h3v-3h2v3h3v2h-3v3ZM1253 216v-3h-3v-2h3v-3h2v3h3v2h-3v3ZM1303 216v-3h-3v-2h3v-3h2v3h3v2h-3v3ZM1353 216v-3h-3v-2h3v-3h2v3h3v2h-3v3ZM1403 216v-3h-3v-2h3v-3h2v3h3v2h-3v3ZM1453 216v-3h-3v-2h3v-3h2v3h3v2h-3v3ZM1503 216v-3h-3v-2h3v-3h2v3h3v2h-3v3ZM1553 216v-3h-3v-2h3v-3h2v3h3v2h-3v3ZM1603 216v-3h-3v-2h3v-3h2v3h3v2h-3v3ZM1653 216v-3h-3v-2h3v-3h2v3h3v2h-3v3ZM1703 216v-3h-3v-2h3v-3h2v3h3v2h-3v3ZM1753 216v-3h-3v-2h3v-3h2v3h3v2h-3v3ZM1803 216v-3h-3v-2h3v-3h2v3h3v2h-3v3ZM1853 216v-3h-3v-2h3v-3h2v3h3v2h-3v3ZM1903 216v-3h-3v-2h3v-3h2v3h3v2h-3v3ZM3 268v-3H0v-2h3v-3h2v3h3v2H5v3ZM53 268v-3h-3v-2h3v-3h2v3h3v2h-3v3ZM103 268v-3h-3v-2h3v-3h2v3h3v2h-3v3ZM153 268v-3h-3v-2h3v-3h2v3h3v2h-3v3ZM203 268v-3h-3v-2h3v-3h2v3h3v2h-3v3ZM253 268v-3h-3v-2h3v-3h2v3h3v2h-3v3ZM303 268v-3h-3v-2h3v-3h2v3h3v2h-3v3ZM353 268v-3h-3v-2h3v-3h2v3h3v2h-3v3ZM403 268v-3h-3v-2h3v-3h2v3h3v2h-3v3ZM453 268v-3h-3v-2h3v-3h2v3h3v2h-3v3ZM503 268v-3h-3v-2h3v-3h2v3h3v2h-3v3ZM553 268v-3h-3v-2h3v-3h2v3h3v2h-3v3ZM603 268v-3h-3v-2h3v-3h2v3h3v2h-3v3ZM653 268v-3h-3v-2h3v-3h2v3h3v2h-3v3ZM703 268v-3h-3v-2h3v-3h2v3h3v2h-3v3ZM753 268v-3h-3v-2h3v-3h2v3h3v2h-3v3ZM803 268v-3h-3v-2h3v-3h2v3h3v2h-3v3ZM853 268v-3h-3v-2h3v-3h2v3h3v2h-3v3ZM903 268v-3h-3v-2h3v-3h2v3h3v2h-3v3ZM953 268v-3h-3v-2h3v-3h2v3h3v2h-3v3ZM1003 268v-3h-3v-2h3v-3h2v3h3v2h-3v3ZM1053 268v-3h-3v-2h3v-3h2v3h3v2h-3v3ZM1103 268v-3h-3v-2h3v-3h2v3h3v2h-3v3ZM1153 268v-3h-3v-2h3v-3h2v3h3v2h-3v3ZM1203 268v-3h-3v-2h3v-3h2v3h3v2h-3v3ZM1253 268v-3h-3v-2h3v-3h2v3h3v2h-3v3ZM1303 268v-3h-3v-2h3v-3h2v3h3v2h-3v3ZM1353 268v-3h-3v-2h3v-3h2v3h3v2h-3v3ZM1403 268v-3h-3v-2h3v-3h2v3h3v2h-3v3ZM1453 268v-3h-3v-2h3v-3h2v3h3v2h-3v3ZM1503 268v-3h-3v-2h3v-3h2v3h3v2h-3v3ZM1553 268v-3h-3v-2h3v-3h2v3h3v2h-3v3ZM1603 268v-3h-3v-2h3v-3h2v3h3v2h-3v3ZM1653 268v-3h-3v-2h3v-3h2v3h3v2h-3v3ZM1703 268v-3h-3v-2h3v-3h2v3h3v2h-3v3ZM1753 268v-3h-3v-2h3v-3h2v3h3v2h-3v3ZM1803 268v-3h-3v-2h3v-3h2v3h3v2h-3v3ZM1853 268v-3h-3v-2h3v-3h2v3h3v2h-3v3ZM1903 268v-3h-3v-2h3v-3h2v3h3v2h-3v3ZM3 320v-3H0v-2h3v-3h2v3h3v2H5v3ZM53 320v-3h-3v-2h3v-3h2v3h3v2h-3v3ZM103 320v-3h-3v-2h3v-3h2v3h3v2h-3v3ZM153 320v-3h-3v-2h3v-3h2v3h3v2h-3v3ZM203 320v-3h-3v-2h3v-3h2v3h3v2h-3v3ZM253 320v-3h-3v-2h3v-3h2v3h3v2h-3v3ZM303 320v-3h-3v-2h3v-3h2v3h3v2h-3v3ZM353 320v-3h-3v-2h3v-3h2v3h3v2h-3v3ZM403 320v-3h-3v-2h3v-3h2v3h3v2h-3v3ZM453 320v-3h-3v-2h3v-3h2v3h3v2h-3v3ZM503 320v-3h-3v-2h3v-3h2v3h3v2h-3v3ZM553 320v-3h-3v-2h3v-3h2v3h3v2h-3v3ZM603 320v-3h-3v-2h3v-3h2v3h3v2h-3v3ZM653 320v-3h-3v-2h3v-3h2v3h3v2h-3v3ZM703 320v-3h-3v-2h3v-3h2v3h3v2h-3v3ZM753 320v-3h-3v-2h3v-3h2v3h3v2h-3v3ZM803 320v-3h-3v-2h3v-3h2v3h3v2h-3v3ZM853 320v-3h-3v-2h3v-3h2v3h3v2h-3v3ZM903 320v-3h-3v-2h3v-3h2v3h3v2h-3v3ZM953 320v-3h-3v-2h3v-3h2v3h3v2h-3v3ZM1003 320v-3h-3v-2h3v-3h2v3h3v2h-3v3ZM1053 320v-3h-3v-2h3v-3h2v3h3v2h-3v3ZM1103 320v-3h-3v-2h3v-3h2v3h3v2h-3v3ZM1153 320v-3h-3v-2h3v-3h2v3h3v2h-3v3ZM1203 320v-3h-3v-2h3v-3h2v3h3v2h-3v3ZM1253 320v-3h-3v-2h3v-3h2v3h3v2h-3v3ZM1303 320v-3h-3v-2h3v-3h2v3h3v2h-3v3ZM1353 320v-3h-3v-2h3v-3h2v3h3v2h-3v3ZM1403 320v-3h-3v-2h3v-3h2v3h3v2h-3v3ZM1453 320v-3h-3v-2h3v-3h2v3h3v2h-3v3ZM1503 320v-3h-3v-2h3v-3h2v3h3v2h-3v3ZM1553 320v-3h-3v-2h3v-3h2v3h3v2h-3v3ZM1603 320v-3h-3v-2h3v-3h2v3h3v2h-3v3ZM1653 320v-3h-3v-2h3v-3h2v3h3v2h-3v3ZM1703 320v-3h-3v-2h3v-3h2v3h3v2h-3v3ZM1753 320v-3h-3v-2h3v-3h2v3h3v2h-3v3ZM1803 320v-3h-3v-2h3v-3h2v3h3v2h-3v3ZM1853 320v-3h-3v-2h3v-3h2v3h3v2h-3v3ZM1903 320v-3h-3v-2h3v-3h2v3h3v2h-3v3ZM3 372v-3H0v-2h3v-3h2v3h3v2H5v3ZM53 372v-3h-3v-2h3v-3h2v3h3v2h-3v3ZM103 372v-3h-3v-2h3v-3h2v3h3v2h-3v3ZM153 372v-3h-3v-2h3v-3h2v3h3v2h-3v3ZM203 372v-3h-3v-2h3v-3h2v3h3v2h-3v3ZM253 372v-3h-3v-2h3v-3h2v3h3v2h-3v3ZM303 372v-3h-3v-2h3v-3h2v3h3v2h-3v3ZM353 372v-3h-3v-2h3v-3h2v3h3v2h-3v3ZM403 372v-3h-3v-2h3v-3h2v3h3v2h-3v3ZM453 372v-3h-3v-2h3v-3h2v3h3v2h-3v3ZM503 372v-3h-3v-2h3v-3h2v3h3v2h-3v3ZM553 372v-3h-3v-2h3v-3h2v3h3v2h-3v3ZM603 372v-3h-3v-2h3v-3h2v3h3v2h-3v3ZM653 372v-3h-3v-2h3v-3h2v3h3v2h-3v3ZM703 372v-3h-3v-2h3v-3h2v3h3v2h-3v3ZM753 372v-3h-3v-2h3v-3h2v3h3v2h-3v3ZM803 372v-3h-3v-2h3v-3h2v3h3v2h-3v3ZM853 372v-3h-3v-2h3v-3h2v3h3v2h-3v3ZM903 372v-3h-3v-2h3v-3h2v3h3v2h-3v3ZM953 372v-3h-3v-2h3v-3h2v3h3v2h-3v3ZM1003 372v-3h-3v-2h3v-3h2v3h3v2h-3v3ZM1053 372v-3h-3v-2h3v-3h2v3h3v2h-3v3ZM1103 372v-3h-3v-2h3v-3h2v3h3v2h-3v3ZM1153 372v-3h-3v-2h3v-3h2v3h3v2h-3v3ZM1203 372v-3h-3v-2h3v-3h2v3h3v2h-3v3ZM1253 372v-3h-3v-2h3v-3h2v3h3v2h-3v3ZM1303 372v-3h-3v-2h3v-3h2v3h3v2h-3v3ZM1353 372v-3h-3v-2h3v-3h2v3h3v2h-3v3ZM1403 372v-3h-3v-2h3v-3h2v3h3v2h-3v3ZM1453 372v-3h-3v-2h3v-3h2v3h3v2h-3v3ZM1503 372v-3h-3v-2h3v-3h2v3h3v2h-3v3ZM1553 372v-3h-3v-2h3v-3h2v3h3v2h-3v3ZM1603 372v-3h-3v-2h3v-3h2v3h3v2h-3v3ZM1653 372v-3h-3v-2h3v-3h2v3h3v2h-3v3ZM1703 372v-3h-3v-2h3v-3h2v3h3v2h-3v3ZM1753 372v-3h-3v-2h3v-3h2v3h3v2h-3v3ZM1803 372v-3h-3v-2h3v-3h2v3h3v2h-3v3ZM1853 372v-3h-3v-2h3v-3h2v3h3v2h-3v3ZM1903 372v-3h-3v-2h3v-3h2v3h3v2h-3v3ZM3 424v-3H0v-2h3v-3h2v3h3v2H5v3ZM53 424v-3h-3v-2h3v-3h2v3h3v2h-3v3ZM103 424v-3h-3v-2h3v-3h2v3h3v2h-3v3ZM153 424v-3h-3v-2h3v-3h2v3h3v2h-3v3ZM203 424v-3h-3v-2h3v-3h2v3h3v2h-3v3ZM253 424v-3h-3v-2h3v-3h2v3h3v2h-3v3ZM303 424v-3h-3v-2h3v-3h2v3h3v2h-3v3ZM353 424v-3h-3v-2h3v-3h2v3h3v2h-3v3ZM403 424v-3h-3v-2h3v-3h2v3h3v2h-3v3ZM453 424v-3h-3v-2h3v-3h2v3h3v2h-3v3ZM503 424v-3h-3v-2h3v-3h2v3h3v2h-3v3ZM553 424v-3h-3v-2h3v-3h2v3h3v2h-3v3ZM603 424v-3h-3v-2h3v-3h2v3h3v2h-3v3ZM653 424v-3h-3v-2h3v-3h2v3h3v2h-3v3ZM703 424v-3h-3v-2h3v-3h2v3h3v2h-3v3ZM753 424v-3h-3v-2h3v-3h2v3h3v2h-3v3ZM803 424v-3h-3v-2h3v-3h2v3h3v2h-3v3ZM853 424v-3h-3v-2h3v-3h2v3h3v2h-3v3ZM903 424v-3h-3v-2h3v-3h2v3h3v2h-3v3ZM953 424v-3h-3v-2h3v-3h2v3h3v2h-3v3ZM1003 424v-3h-3v-2h3v-3h2v3h3v2h-3v3ZM1053 424v-3h-3v-2h3v-3h2v3h3v2h-3v3ZM1103 424v-3h-3v-2h3v-3h2v3h3v2h-3v3ZM1153 424v-3h-3v-2h3v-3h2v3h3v2h-3v3ZM1203 424v-3h-3v-2h3v-3h2v3h3v2h-3v3ZM1253 424v-3h-3v-2h3v-3h2v3h3v2h-3v3ZM1303 424v-3h-3v-2h3v-3h2v3h3v2h-3v3ZM1353 424v-3h-3v-2h3v-3h2v3h3v2h-3v3ZM1403 424v-3h-3v-2h3v-3h2v3h3v2h-3v3ZM1453 424v-3h-3v-2h3v-3h2v3h3v2h-3v3ZM1503 424v-3h-3v-2h3v-3h2v3h3v2h-3v3ZM1553 424v-3h-3v-2h3v-3h2v3h3v2h-3v3ZM1603 424v-3h-3v-2h3v-3h2v3h3v2h-3v3ZM1653 424v-3h-3v-2h3v-3h2v3h3v2h-3v3ZM1703 424v-3h-3v-2h3v-3h2v3h3v2h-3v3ZM1753 424v-3h-3v-2h3v-3h2v3h3v2h-3v3ZM1803 424v-3h-3v-2h3v-3h2v3h3v2h-3v3ZM1853 424v-3h-3v-2h3v-3h2v3h3v2h-3v3ZM1903 424v-3h-3v-2h3v-3h2v3h3v2h-3v3ZM3 476v-3H0v-2h3v-3h2v3h3v2H5v3ZM53 476v-3h-3v-2h3v-3h2v3h3v2h-3v3ZM103 476v-3h-3v-2h3v-3h2v3h3v2h-3v3ZM153 476v-3h-3v-2h3v-3h2v3h3v2h-3v3ZM203 476v-3h-3v-2h3v-3h2v3h3v2h-3v3ZM253 476v-3h-3v-2h3v-3h2v3h3v2h-3v3ZM303 476v-3h-3v-2h3v-3h2v3h3v2h-3v3ZM353 476v-3h-3v-2h3v-3h2v3h3v2h-3v3ZM403 476v-3h-3v-2h3v-3h2v3h3v2h-3v3ZM453 476v-3h-3v-2h3v-3h2v3h3v2h-3v3ZM503 476v-3h-3v-2h3v-3h2v3h3v2h-3v3ZM553 476v-3h-3v-2h3v-3h2v3h3v2h-3v3ZM603 476v-3h-3v-2h3v-3h2v3h3v2h-3v3ZM653 476v-3h-3v-2h3v-3h2v3h3v2h-3v3ZM703 476v-3h-3v-2h3v-3h2v3h3v2h-3v3ZM753 476v-3h-3v-2h3v-3h2v3h3v2h-3v3ZM803 476v-3h-3v-2h3v-3h2v3h3v2h-3v3ZM853 476v-3h-3v-2h3v-3h2v3h3v2h-3v3ZM903 476v-3h-3v-2h3v-3h2v3h3v2h-3v3ZM953 476v-3h-3v-2h3v-3h2v3h3v2h-3v3ZM1003 476v-3h-3v-2h3v-3h2v3h3v2h-3v3ZM1053 476v-3h-3v-2h3v-3h2v3h3v2h-3v3ZM1103 476v-3h-3v-2h3v-3h2v3h3v2h-3v3ZM1153 476v-3h-3v-2h3v-3h2v3h3v2h-3v3ZM1203 476v-3h-3v-2h3v-3h2v3h3v2h-3v3ZM1253 476v-3h-3v-2h3v-3h2v3h3v2h-3v3ZM1303 476v-3h-3v-2h3v-3h2v3h3v2h-3v3ZM1353 476v-3h-3v-2h3v-3h2v3h3v2h-3v3ZM1403 476v-3h-3v-2h3v-3h2v3h3v2h-3v3ZM1453 476v-3h-3v-2h3v-3h2v3h3v2h-3v3ZM1503 476v-3h-3v-2h3v-3h2v3h3v2h-3v3ZM1553 476v-3h-3v-2h3v-3h2v3h3v2h-3v3ZM1603 476v-3h-3v-2h3v-3h2v3h3v2h-3v3ZM1653 476v-3h-3v-2h3v-3h2v3h3v2h-3v3ZM1703 476v-3h-3v-2h3v-3h2v3h3v2h-3v3ZM1753 476v-3h-3v-2h3v-3h2v3h3v2h-3v3ZM1803 476v-3h-3v-2h3v-3h2v3h3v2h-3v3ZM1853 476v-3h-3v-2h3v-3h2v3h3v2h-3v3ZM1903 476v-3h-3v-2h3v-3h2v3h3v2h-3v3ZM3 528v-3H0v-2h3v-3h2v3h3v2H5v3ZM53 528v-3h-3v-2h3v-3h2v3h3v2h-3v3ZM103 528v-3h-3v-2h3v-3h2v3h3v2h-3v3ZM153 528v-3h-3v-2h3v-3h2v3h3v2h-3v3ZM203 528v-3h-3v-2h3v-3h2v3h3v2h-3v3ZM253 528v-3h-3v-2h3v-3h2v3h3v2h-3v3ZM303 528v-3h-3v-2h3v-3h2v3h3v2h-3v3ZM353 528v-3h-3v-2h3v-3h2v3h3v2h-3v3ZM403 528v-3h-3v-2h3v-3h2v3h3v2h-3v3ZM453 528v-3h-3v-2h3v-3h2v3h3v2h-3v3ZM503 528v-3h-3v-2h3v-3h2v3h3v2h-3v3ZM553 528v-3h-3v-2h3v-3h2v3h3v2h-3v3ZM603 528v-3h-3v-2h3v-3h2v3h3v2h-3v3ZM653 528v-3h-3v-2h3v-3h2v3h3v2h-3v3ZM703 528v-3h-3v-2h3v-3h2v3h3v2h-3v3ZM753 528v-3h-3v-2h3v-3h2v3h3v2h-3v3ZM803 528v-3h-3v-2h3v-3h2v3h3v2h-3v3ZM853 528v-3h-3v-2h3v-3h2v3h3v2h-3v3ZM903 528v-3h-3v-2h3v-3h2v3h3v2h-3v3ZM953 528v-3h-3v-2h3v-3h2v3h3v2h-3v3ZM1003 528v-3h-3v-2h3v-3h2v3h3v2h-3v3ZM1053 528v-3h-3v-2h3v-3h2v3h3v2h-3v3ZM1103 528v-3h-3v-2h3v-3h2v3h3v2h-3v3ZM1153 528v-3h-3v-2h3v-3h2v3h3v2h-3v3ZM1203 528v-3h-3v-2h3v-3h2v3h3v2h-3v3ZM1253 528v-3h-3v-2h3v-3h2v3h3v2h-3v3ZM1303 528v-3h-3v-2h3v-3h2v3h3v2h-3v3ZM1353 528v-3h-3v-2h3v-3h2v3h3v2h-3v3ZM1403 528v-3h-3v-2h3v-3h2v3h3v2h-3v3ZM1453 528v-3h-3v-2h3v-3h2v3h3v2h-3v3ZM1503 528v-3h-3v-2h3v-3h2v3h3v2h-3v3ZM1553 528v-3h-3v-2h3v-3h2v3h3v2h-3v3ZM1603 528v-3h-3v-2h3v-3h2v3h3v2h-3v3ZM1653 528v-3h-3v-2h3v-3h2v3h3v2h-3v3ZM1703 528v-3h-3v-2h3v-3h2v3h3v2h-3v3ZM1753 528v-3h-3v-2h3v-3h2v3h3v2h-3v3ZM1803 528v-3h-3v-2h3v-3h2v3h3v2h-3v3ZM1853 528v-3h-3v-2h3v-3h2v3h3v2h-3v3ZM1903 528v-3h-3v-2h3v-3h2v3h3v2h-3v3ZM3 580v-3H0v-2h3v-3h2v3h3v2H5v3ZM53 580v-3h-3v-2h3v-3h2v3h3v2h-3v3ZM103 580v-3h-3v-2h3v-3h2v3h3v2h-3v3ZM153 580v-3h-3v-2h3v-3h2v3h3v2h-3v3ZM203 580v-3h-3v-2h3v-3h2v3h3v2h-3v3ZM253 580v-3h-3v-2h3v-3h2v3h3v2h-3v3ZM303 580v-3h-3v-2h3v-3h2v3h3v2h-3v3ZM353 580v-3h-3v-2h3v-3h2v3h3v2h-3v3ZM403 580v-3h-3v-2h3v-3h2v3h3v2h-3v3ZM453 580v-3h-3v-2h3v-3h2v3h3v2h-3v3ZM503 580v-3h-3v-2h3v-3h2v3h3v2h-3v3ZM553 580v-3h-3v-2h3v-3h2v3h3v2h-3v3ZM603 580v-3h-3v-2h3v-3h2v3h3v2h-3v3ZM653 580v-3h-3v-2h3v-3h2v3h3v2h-3v3ZM703 580v-3h-3v-2h3v-3h2v3h3v2h-3v3ZM753 580v-3h-3v-2h3v-3h2v3h3v2h-3v3ZM803 580v-3h-3v-2h3v-3h2v3h3v2h-3v3ZM853 580v-3h-3v-2h3v-3h2v3h3v2h-3v3ZM903 580v-3h-3v-2h3v-3h2v3h3v2h-3v3ZM953 580v-3h-3v-2h3v-3h2v3h3v2h-3v3ZM1003 580v-3h-3v-2h3v-3h2v3h3v2h-3v3ZM1053 580v-3h-3v-2h3v-3h2v3h3v2h-3v3ZM1103 580v-3h-3v-2h3v-3h2v3h3v2h-3v3ZM1153 580v-3h-3v-2h3v-3h2v3h3v2h-3v3ZM1203 580v-3h-3v-2h3v-3h2v3h3v2h-3v3ZM1253 580v-3h-3v-2h3v-3h2v3h3v2h-3v3ZM1303 580v-3h-3v-2h3v-3h2v3h3v2h-3v3ZM1353 580v-3h-3v-2h3v-3h2v3h3v2h-3v3ZM1403 580v-3h-3v-2h3v-3h2v3h3v2h-3v3ZM1453 580v-3h-3v-2h3v-3h2v3h3v2h-3v3ZM1503 580v-3h-3v-2h3v-3h2v3h3v2h-3v3ZM1553 580v-3h-3v-2h3v-3h2v3h3v2h-3v3ZM1603 580v-3h-3v-2h3v-3h2v3h3v2h-3v3ZM1653 580v-3h-3v-2h3v-3h2v3h3v2h-3v3ZM1703 580v-3h-3v-2h3v-3h2v3h3v2h-3v3ZM1753 580v-3h-3v-2h3v-3h2v3h3v2h-3v3ZM1803 580v-3h-3v-2h3v-3h2v3h3v2h-3v3ZM1853 580v-3h-3v-2h3v-3h2v3h3v2h-3v3ZM1903 580v-3h-3v-2h3v-3h2v3h3v2h-3v3ZM3 632v-3H0v-2h3v-3h2v3h3v2H5v3ZM53 632v-3h-3v-2h3v-3h2v3h3v2h-3v3ZM103 632v-3h-3v-2h3v-3h2v3h3v2h-3v3ZM153 632v-3h-3v-2h3v-3h2v3h3v2h-3v3ZM203 632v-3h-3v-2h3v-3h2v3h3v2h-3v3ZM253 632v-3h-3v-2h3v-3h2v3h3v2h-3v3ZM303 632v-3h-3v-2h3v-3h2v3h3v2h-3v3ZM353 632v-3h-3v-2h3v-3h2v3h3v2h-3v3ZM403 632v-3h-3v-2h3v-3h2v3h3v2h-3v3ZM453 632v-3h-3v-2h3v-3h2v3h3v2h-3v3ZM503 632v-3h-3v-2h3v-3h2v3h3v2h-3v3ZM553 632v-3h-3v-2h3v-3h2v3h3v2h-3v3ZM603 632v-3h-3v-2h3v-3h2v3h3v2h-3v3ZM653 632v-3h-3v-2h3v-3h2v3h3v2h-3v3ZM703 632v-3h-3v-2h3v-3h2v3h3v2h-3v3ZM753 632v-3h-3v-2h3v-3h2v3h3v2h-3v3ZM803 632v-3h-3v-2h3v-3h2v3h3v2h-3v3ZM853 632v-3h-3v-2h3v-3h2v3h3v2h-3v3ZM903 632v-3h-3v-2h3v-3h2v3h3v2h-3v3ZM953 632v-3h-3v-2h3v-3h2v3h3v2h-3v3ZM1003 632v-3h-3v-2h3v-3h2v3h3v2h-3v3ZM1053 632v-3h-3v-2h3v-3h2v3h3v2h-3v3ZM1103 632v-3h-3v-2h3v-3h2v3h3v2h-3v3ZM1153 632v-3h-3v-2h3v-3h2v3h3v2h-3v3ZM1203 632v-3h-3v-2h3v-3h2v3h3v2h-3v3ZM1253 632v-3h-3v-2h3v-3h2v3h3v2h-3v3ZM1303 632v-3h-3v-2h3v-3h2v3h3v2h-3v3ZM1353 632v-3h-3v-2h3v-3h2v3h3v2h-3v3ZM1403 632v-3h-3v-2h3v-3h2v3h3v2h-3v3ZM1453 632v-3h-3v-2h3v-3h2v3h3v2h-3v3ZM1503 632v-3h-3v-2h3v-3h2v3h3v2h-3v3ZM1553 632v-3h-3v-2h3v-3h2v3h3v2h-3v3ZM1603 632v-3h-3v-2h3v-3h2v3h3v2h-3v3ZM1653 632v-3h-3v-2h3v-3h2v3h3v2h-3v3ZM1703 632v-3h-3v-2h3v-3h2v3h3v2h-3v3ZM1753 632v-3h-3v-2h3v-3h2v3h3v2h-3v3ZM1803 632v-3h-3v-2h3v-3h2v3h3v2h-3v3ZM1853 632v-3h-3v-2h3v-3h2v3h3v2h-3v3ZM1903 632v-3h-3v-2h3v-3h2v3h3v2h-3v3ZM3 684v-3H0v-2h3v-3h2v3h3v2H5v3ZM53 684v-3h-3v-2h3v-3h2v3h3v2h-3v3ZM103 684v-3h-3v-2h3v-3h2v3h3v2h-3v3ZM153 684v-3h-3v-2h3v-3h2v3h3v2h-3v3ZM203 684v-3h-3v-2h3v-3h2v3h3v2h-3v3ZM253 684v-3h-3v-2h3v-3h2v3h3v2h-3v3ZM303 684v-3h-3v-2h3v-3h2v3h3v2h-3v3ZM353 684v-3h-3v-2h3v-3h2v3h3v2h-3v3ZM403 684v-3h-3v-2h3v-3h2v3h3v2h-3v3ZM453 684v-3h-3v-2h3v-3h2v3h3v2h-3v3ZM503 684v-3h-3v-2h3v-3h2v3h3v2h-3v3ZM553 684v-3h-3v-2h3v-3h2v3h3v2h-3v3ZM603 684v-3h-3v-2h3v-3h2v3h3v2h-3v3ZM653 684v-3h-3v-2h3v-3h2v3h3v2h-3v3ZM703 684v-3h-3v-2h3v-3h2v3h3v2h-3v3ZM753 684v-3h-3v-2h3v-3h2v3h3v2h-3v3ZM803 684v-3h-3v-2h3v-3h2v3h3v2h-3v3ZM853 684v-3h-3v-2h3v-3h2v3h3v2h-3v3ZM903 684v-3h-3v-2h3v-3h2v3h3v2h-3v3ZM953 684v-3h-3v-2h3v-3h2v3h3v2h-3v3ZM1003 684v-3h-3v-2h3v-3h2v3h3v2h-3v3ZM1053 684v-3h-3v-2h3v-3h2v3h3v2h-3v3ZM1103 684v-3h-3v-2h3v-3h2v3h3v2h-3v3ZM1153 684v-3h-3v-2h3v-3h2v3h3v2h-3v3ZM1203 684v-3h-3v-2h3v-3h2v3h3v2h-3v3ZM1253 684v-3h-3v-2h3v-3h2v3h3v2h-3v3ZM1303 684v-3h-3v-2h3v-3h2v3h3v2h-3v3ZM1353 684v-3h-3v-2h3v-3h2v3h3v2h-3v3ZM1403 684v-3h-3v-2h3v-3h2v3h3v2h-3v3ZM1453 684v-3h-3v-2h3v-3h2v3h3v2h-3v3ZM1503 684v-3h-3v-2h3v-3h2v3h3v2h-3v3ZM1553 684v-3h-3v-2h3v-3h2v3h3v2h-3v3ZM1603 684v-3h-3v-2h3v-3h2v3h3v2h-3v3ZM1653 684v-3h-3v-2h3v-3h2v3h3v2h-3v3ZM1703 684v-3h-3v-2h3v-3h2v3h3v2h-3v3ZM1753 684v-3h-3v-2h3v-3h2v3h3v2h-3v3ZM1803 684v-3h-3v-2h3v-3h2v3h3v2h-3v3ZM1853 684v-3h-3v-2h3v-3h2v3h3v2h-3v3ZM1903 684v-3h-3v-2h3v-3h2v3h3v2h-3v3ZM3 736v-3H0v-2h3v-3h2v3h3v2H5v3ZM53 736v-3h-3v-2h3v-3h2v3h3v2h-3v3ZM103 736v-3h-3v-2h3v-3h2v3h3v2h-3v3ZM153 736v-3h-3v-2h3v-3h2v3h3v2h-3v3ZM203 736v-3h-3v-2h3v-3h2v3h3v2h-3v3ZM253 736v-3h-3v-2h3v-3h2v3h3v2h-3v3ZM303 736v-3h-3v-2h3v-3h2v3h3v2h-3v3ZM353 736v-3h-3v-2h3v-3h2v3h3v2h-3v3ZM403 736v-3h-3v-2h3v-3h2v3h3v2h-3v3ZM453 736v-3h-3v-2h3v-3h2v3h3v2h-3v3ZM503 736v-3h-3v-2h3v-3h2v3h3v2h-3v3ZM553 736v-3h-3v-2h3v-3h2v3h3v2h-3v3ZM603 736v-3h-3v-2h3v-3h2v3h3v2h-3v3ZM653 736v-3h-3v-2h3v-3h2v3h3v2h-3v3ZM703 736v-3h-3v-2h3v-3h2v3h3v2h-3v3ZM753 736v-3h-3v-2h3v-3h2v3h3v2h-3v3ZM803 736v-3h-3v-2h3v-3h2v3h3v2h-3v3ZM853 736v-3h-3v-2h3v-3h2v3h3v2h-3v3ZM903 736v-3h-3v-2h3v-3h2v3h3v2h-3v3ZM953 736v-3h-3v-2h3v-3h2v3h3v2h-3v3ZM1003 736v-3h-3v-2h3v-3h2v3h3v2h-3v3ZM1053 736v-3h-3v-2h3v-3h2v3h3v2h-3v3ZM1103 736v-3h-3v-2h3v-3h2v3h3v2h-3v3ZM1153 736v-3h-3v-2h3v-3h2v3h3v2h-3v3ZM1203 736v-3h-3v-2h3v-3h2v3h3v2h-3v3ZM1253 736v-3h-3v-2h3v-3h2v3h3v2h-3v3ZM1303 736v-3h-3v-2h3v-3h2v3h3v2h-3v3ZM1353 736v-3h-3v-2h3v-3h2v3h3v2h-3v3ZM1403 736v-3h-3v-2h3v-3h2v3h3v2h-3v3ZM1453 736v-3h-3v-2h3v-3h2v3h3v2h-3v3ZM1503 736v-3h-3v-2h3v-3h2v3h3v2h-3v3ZM1553 736v-3h-3v-2h3v-3h2v3h3v2h-3v3ZM1603 736v-3h-3v-2h3v-3h2v3h3v2h-3v3ZM1653 736v-3h-3v-2h3v-3h2v3h3v2h-3v3ZM1703 736v-3h-3v-2h3v-3h2v3h3v2h-3v3ZM1753 736v-3h-3v-2h3v-3h2v3h3v2h-3v3ZM1803 736v-3h-3v-2h3v-3h2v3h3v2h-3v3ZM1853 736v-3h-3v-2h3v-3h2v3h3v2h-3v3ZM1903 736v-3h-3v-2h3v-3h2v3h3v2h-3v3Z" />
      </g>
    </g>
  </g>
</svg>